<svg width="140" height="70" viewBox="0 0 140 70" fill="none" xmlns="http://www.w3.org/2000/svg">
<g clip-path="url(#clip0_4_5049)">
<path fill-rule="evenodd" clip-rule="evenodd" d="M8.13772 34.8692C8.13772 30.7979 9.94779 27.1429 11.9739 24.3943L13.9334 22.0752C15.2296 20.6795 16.9492 19.2118 18.4862 18.0684C18.7821 17.8494 19.0553 17.6522 19.3541 17.4512L21.088 16.302C23.6661 14.5926 27.7259 12.5636 30.6114 11.4059C33.3017 10.327 36.1986 9.29541 39.1317 8.47433C45.9313 6.57145 54.326 5.04402 61.337 4.70649C62.1678 4.66667 63.1651 4.5254 64.0492 4.53203L68.2499 4.44575C69.5403 4.45049 69.2958 4.24475 70.9755 4.43248C71.5731 4.4998 73.9865 4.43058 75.1666 4.52824L78.5793 4.70175C80.1077 4.82121 81.7303 4.88284 83.2634 5.09143C84.1504 5.21279 84.9802 5.29053 85.8329 5.40905C92.7249 6.3695 98.1228 7.49303 104.595 9.64337C105.362 9.89747 106.005 10.1136 106.737 10.3858L110.788 12.0165C113.471 13.1126 117.779 15.4174 120.137 17.0861L124.929 20.9422C125.565 21.5281 125.918 22.0221 126.326 22.426C127.348 23.4348 128.077 24.4682 128.87 25.6458C130.441 27.9772 131.775 31.4066 131.775 34.2586V35.8277C131.775 38.9167 130.235 42.0379 129.045 44.0062C128.69 44.595 128.36 45.0719 127.951 45.6171L125.409 48.4899C121.132 52.7508 115.888 55.7402 110.313 58.12C108.238 59.0065 106.56 59.6455 104.42 60.3566C102.136 61.1161 98.1266 62.2804 95.8055 62.7573C95.3896 62.8426 95.0584 62.9403 94.6682 63.0199C91.148 63.7405 87.6925 64.3596 84.0714 64.754C76.3286 65.5979 73.288 65.467 65.7127 65.467C62.7216 65.467 60.7622 65.1816 58.0052 64.9512C57.1125 64.8773 56.3007 64.755 55.4728 64.6848C54.6886 64.6194 53.8683 64.5018 53.0632 64.3833C52.2171 64.2591 51.3939 64.1359 50.6373 64.0098C49.0309 63.7424 47.5244 63.5072 45.9742 63.164C38.0982 61.4176 32.6822 59.7356 25.4629 56.1394C24.8481 55.8331 24.299 55.5487 23.6842 55.2083C21.0557 53.7548 19.4293 52.6209 17.0996 50.7853L16.3392 50.1482C16.2012 50.0145 16.1355 49.9254 15.9871 49.8012C15.123 49.0815 15.0392 48.9374 14.2408 48.141C13.5432 47.447 12.8932 46.7444 12.3117 45.9651C9.97825 42.8353 8.13772 39.5055 8.13772 34.8692ZM63.0871 17.3469V19.2649C65.4091 19.2649 65.0123 19.2592 65.0123 22.4032V50.2989C65.0123 51.1257 65.0999 51.6187 65.0999 52.3914C65.5709 52.7053 65.1398 52.5886 65.8688 52.6711C67.2335 52.8266 72.5571 52.7394 74.2873 52.7394C74.4995 52.7394 74.9001 52.3402 74.9001 52.1298V17.6958C74.9001 17.4853 74.4995 17.0852 74.2873 17.0852H63.3497C63.148 17.0852 63.0871 17.1459 63.0871 17.3469ZM90.3876 18.1319V19.2649C91.0557 19.2649 91.5144 19.3152 92.0502 19.4394C92.2367 20.2377 91.8741 20.9147 91.5144 22.0439C91.2907 22.7474 91.0376 23.3779 90.7921 24.1136L85.8263 38.8683C85.5979 39.551 85.3637 40.2507 85.1258 40.9599C84.1218 43.9626 82.483 48.6008 81.6361 51.5192C81.3744 52.4218 81.4467 52.7394 82.9494 52.7394C83.8687 52.7394 90.2525 52.8257 90.8558 52.5972C91.3126 52.4237 91.4649 51.7439 91.6238 51.2689C93.3368 46.1272 94.8947 40.7854 96.6106 35.6646L97.6127 32.5662C97.7859 31.9594 97.9267 31.5564 98.1199 30.979C98.295 30.4575 98.3864 29.8195 98.787 29.5511C99.142 29.7882 99.2905 30.4025 99.4542 30.8918C101.282 36.3539 103.021 42.1697 104.836 47.5854L106.344 52.0985C106.564 52.6152 107.099 52.7394 107.799 52.7394C108.915 52.7394 115.157 52.8418 115.742 52.6323C116.58 52.3336 115.995 51.4528 115.818 50.8536C115.011 48.122 113.699 44.4395 112.777 41.6795C111.612 38.198 110.43 34.7516 109.254 31.2407L104.881 18.2504C104.438 16.9525 104.522 17.1724 102.462 17.1724L90.5627 17.0852C90.1059 17.0852 90.3876 17.674 90.3876 18.1319ZM28.5253 17.1724H24.6749V19.2649C25.8407 19.2649 25.9063 19.1512 26.6001 19.6138C26.6001 22.6412 26.4564 35.0417 26.6743 36.974C26.759 37.723 26.6876 48.3022 26.6876 50.0372C26.6876 52.5081 26.406 52.7394 28.3502 52.7394H35.7C35.8855 52.7394 36.1701 52.4578 36.2415 52.3203C36.3557 52.1004 36.3157 51.7458 36.3128 51.4329L36.3195 38.7119C36.4784 37.0138 37.8326 39.2533 38.2723 39.8904C38.7453 40.574 39.1926 41.1505 39.6551 41.8255C41.7212 44.8463 44.4134 48.4387 46.6004 51.4689C47.1466 52.2265 47.3703 52.7394 48.7378 52.7394H58.0128C58.2954 52.7394 58.5371 52.3611 58.5371 52.0425C58.5371 51.4623 52.968 43.9038 52.2894 42.9244L49.1004 38.4303C48.7036 37.8956 46.0246 34.1808 46.0246 33.8234C46.0246 33.2242 51.3378 25.6657 51.5376 25.3671L53.6551 22.2458C53.9082 21.8675 54.1119 21.5945 54.3736 21.2181L56.4558 18.057C56.5662 17.7176 56.3141 17.0852 55.7373 17.0852C52.692 17.0852 49.6571 17.0387 46.6356 17.1715C45.6297 17.2151 45.545 17.638 44.8617 18.5425C43.3333 20.5658 41.1406 23.7439 39.5504 25.9777C39.1117 26.5939 38.7082 27.2045 38.2504 27.8208C38.0211 28.1308 37.8155 28.403 37.59 28.732C36.0568 30.9667 36.3128 28.1109 36.3128 27.3723V18.3927C36.3195 17.5697 36.4327 17.07 35.0014 17.0842L31.15 17.1724C30.2754 17.1705 29.3999 17.1724 28.5253 17.1724ZM66.063 0H72.2745C78.093 0 84.3036 0.584993 90.0117 1.41934C99.5493 2.81403 109.052 5.37017 117.366 9.21103C120.234 10.5365 122.982 12.0165 125.633 13.7023C128.184 15.3245 130.581 17.2483 132.715 19.374L134.224 21.0085C134.456 21.3091 134.72 21.5812 134.985 21.9074C136.723 24.0492 138.107 26.2725 139.005 28.9737C139.779 31.3061 140 33.045 140 35.6533C140 38.3801 139.116 41.1742 137.987 43.4127C137.454 44.4708 136.8 45.4796 136.15 46.4628C135.508 47.4346 134.784 48.3344 133.984 49.1868C133.796 49.3859 133.778 49.4674 133.591 49.6684C132.036 51.3428 129.842 53.3149 127.959 54.6053L123.096 57.7796C121.723 58.6083 120.277 59.3374 118.824 60.0627C114.281 62.3325 109.634 63.9927 104.649 65.3798C102.94 65.8558 101.273 66.3222 99.437 66.7242C94.6663 67.77 90.4485 68.4925 85.5493 69.1031L82.6001 69.3904C82.2023 69.4074 81.5047 69.4643 81.0755 69.5278L76.4771 69.8274C74.4814 69.8189 72.2716 69.9962 70.2779 70H70.1532C68.9817 69.9981 68.1195 69.9128 66.9375 69.9128C66.3913 69.9128 65.8136 69.9317 65.2721 69.9156C64.7668 69.9004 64.4185 69.8217 63.7875 69.8255C63.1223 69.8303 62.793 69.7345 62.2144 69.7364C61.5711 69.7383 61.3027 69.653 60.725 69.6511C59.2728 69.6473 57.6321 69.4397 56.1894 69.288C53.815 69.0377 51.3492 68.7523 48.9881 68.3559C46.2502 67.8971 43.4522 67.4505 40.7752 66.7745C39.0137 66.3298 37.3283 65.9563 35.6229 65.4566L33.0562 64.7009C32.2064 64.4667 31.4041 64.1719 30.6133 63.9093C26.7133 62.6141 22.8058 61.0137 19.1914 59.0748C17.7991 58.3276 16.3535 57.5255 15.0506 56.6618L13.1083 55.3714C11.2773 54.136 7.43253 51.046 6.12494 49.3404C5.96411 49.1299 5.89369 49.0796 5.70906 48.8834C3.72483 46.7719 2.17551 44.0413 1.11155 41.3458C0.0942153 38.7697 0 36.6952 0 33.9106C0 32.2267 0.610971 29.9124 1.10013 28.6428C1.77296 26.8973 2.5933 25.4239 3.55924 23.8567C3.70104 23.6273 3.72959 23.6197 3.88471 23.3969C4.12453 23.0527 4.31867 22.7986 4.54993 22.4905C5.21134 21.6096 5.92604 20.7175 6.71498 19.94C7.00048 19.6594 7.21936 19.4384 7.50296 19.1559L8.72871 18.0238C8.88288 17.8807 8.96187 17.7716 9.12555 17.6342C12.5068 14.8135 14.8632 13.3486 18.6413 11.1613L20.1992 10.3602C26.2623 7.18963 32.8697 5.12271 39.5142 3.45117C44.52 2.19206 53.3915 0.700664 58.7979 0.434241L64.7506 0.0881756C65.3225 0.0910199 65.5738 0.0132737 66.063 0Z" fill="white"/>
</g>
<defs>
<clipPath id="clip0_4_5049">
<rect width="140" height="70" fill="white"/>
</clipPath>
</defs>
</svg>
