<svg width="140" height="70" viewBox="0 0 140 70" fill="none" xmlns="http://www.w3.org/2000/svg">
<g clip-path="url(#clip0_4_5054)">
<path fill-rule="evenodd" clip-rule="evenodd" d="M77.2572 64.3773H52.3892C52.2851 64.3773 51.6967 63.7355 51.5716 63.6362C51.4656 63.5512 51.4303 63.4652 51.3271 63.3621C51.223 63.258 51.1476 63.2245 51.0483 63.1204C50.9337 63.0001 50.9384 62.9571 50.798 62.8511C50.6538 62.7432 50.5411 62.578 50.4084 62.4624C49.8143 61.9467 48.801 60.8703 48.1926 60.2629L44.5509 56.6317C44.4 56.5161 44.4105 56.5066 44.2959 56.3681C44.1689 56.2153 44.0171 56.1427 43.8929 55.9918L43.6312 55.7339C43.5806 55.6881 43.5509 55.6537 43.5013 55.604C43.3208 55.4226 43.1632 55.266 42.9827 55.0845L37.9141 50.0236C37.768 49.9071 37.6754 49.759 37.5283 49.6301C37.4194 49.5355 37.3526 49.5012 37.2523 49.3866L36.7327 48.868C36.5952 48.7295 35.7022 47.9014 35.7022 47.7878V22.8223C35.7022 22.7029 37.6352 20.8415 37.7556 20.7202C38.087 20.3888 40.2866 18.1367 40.6142 17.8655L40.872 17.6038C40.9741 17.4921 41.0439 17.4567 41.149 17.3612C41.2578 17.2619 41.2903 17.1721 41.3925 17.0852C41.4565 17.0308 41.4708 17.0336 41.5377 16.9716L51.8286 6.71222C51.9222 6.61862 52.2775 6.2003 52.3892 6.2003H77.5819C77.7519 6.2003 78.5332 7.15537 78.7318 7.32346C78.9734 7.52689 79.3851 7.98819 79.6353 8.23746L85.3285 13.9392C85.3333 13.944 85.3399 13.9516 85.3447 13.9564L90.9003 19.5359C91.2413 19.8759 91.5985 20.2064 91.9214 20.5597L91.9834 20.6276C91.9872 20.6323 91.9939 20.64 91.9987 20.6447L92.2518 20.9103C92.4734 21.1404 93.9442 22.5415 93.9442 22.6599V47.6904C93.9442 47.8069 93.0378 48.6454 92.9289 48.7533C92.6644 49.0189 92.4256 49.2939 92.1505 49.5336L91.63 50.0522C91.3721 50.313 91.1267 50.5919 90.8526 50.8325L89.2767 52.4065C89.2213 52.4666 89.2128 52.4924 89.1564 52.545L88.6292 53.0569C88.4229 53.2278 87.2329 54.4895 86.9483 54.7531L82.6381 59.0452C82.576 59.1177 82.5874 59.1273 82.5206 59.1875L81.7298 59.9553C81.4872 60.2313 81.192 60.4921 80.9332 60.749L80.2934 61.408C80.2418 61.4557 80.2094 61.4739 80.154 61.5283L78.3364 63.3468C78.2495 63.4337 78.1683 63.5397 78.0862 63.6152C77.9802 63.7126 77.3451 64.3773 77.2572 64.3773ZM68.0695 10.1944V60.1569C68.0695 60.2323 68.0923 60.2543 68.1668 60.2543H75.731C75.8408 60.2543 76.9554 59.0795 77.1187 58.9153C77.198 58.836 77.2639 58.7605 77.346 58.688L83.5139 52.5517C83.6075 52.4619 83.6667 52.4389 83.7593 52.3425C83.8415 52.2556 83.8797 52.1734 83.9713 52.1009C84.34 51.8077 88.4229 47.6856 89.228 46.8709C89.3264 46.7716 89.3732 46.7467 89.4716 46.6598C89.5747 46.5701 89.5881 46.508 89.6817 46.4153C89.7772 46.3198 90.3722 45.8557 90.3722 45.7105V35.1589H79.1397V41.1978C79.1397 41.2723 79.1625 41.2952 79.237 41.2952H82.9704C83.3305 41.2952 83.575 41.2121 83.8596 41.3477C83.9952 41.4117 84.0554 41.4729 84.127 41.5999C84.3686 42.0278 84.1423 42.5884 83.9666 42.9408C83.8577 43.1586 83.6056 43.4441 83.4327 43.6409C83.2188 43.8844 82.831 44.2177 82.6877 44.3887L78.4004 48.6722C77.8933 49.1401 76.6498 50.483 76.2735 50.7981C76.1952 50.8631 76.1723 50.8688 76.0959 50.9443C76.0405 50.9987 76.0032 51.036 75.9506 51.0923C75.9249 51.121 75.901 51.1506 75.8743 51.1773L74.8543 52.1706V18.1807L77.2171 20.6228C77.2811 20.6925 77.2859 20.7164 77.346 20.7851L78.3851 21.8567C78.5972 22.0688 78.7595 22.2636 78.9696 22.4737L80.1711 23.7076C80.2857 23.8213 80.3392 23.9082 80.4462 24.0161C80.6907 24.2635 80.9639 24.5042 81.1807 24.7754L83.6934 27.3923C83.786 27.4849 84.2693 27.952 84.2693 28.0494V30.3874H90.3722V24.8031C90.3722 24.7038 89.6072 23.9884 89.4878 23.87L88.8059 23.1881C88.7161 23.0964 88.6913 23.0391 88.5958 22.9436C87.8938 22.2454 87.3618 21.7345 86.6789 20.9972C86.6359 20.9504 86.6111 20.9274 86.5663 20.8826C86.4822 20.7995 86.423 20.7393 86.339 20.6553C85.9541 20.2713 85.147 19.4996 84.8719 19.1682L84.8089 19.1014C84.8041 19.0966 84.7974 19.0899 84.7927 19.0851L84.7602 19.0526C84.68 18.9705 84.6217 18.9056 84.5367 18.8215L82.9294 17.2151C82.8348 17.1205 82.809 17.0623 82.7192 16.9706L80.7824 15.0118C80.7776 15.007 80.7709 15.0003 80.7661 14.9955C80.7613 14.9907 80.7557 14.9831 80.7509 14.9783L76.3881 10.543C76.3021 10.457 76.0013 10.097 75.8934 10.097H68.1668C68.0923 10.097 68.0695 10.1189 68.0695 10.1944ZM49.8888 27.1726H49.8238C49.7742 26.9597 49.396 26.3112 49.3091 26.0972L48.5354 24.5004C48.4323 24.3179 48.3569 24.1403 48.2662 23.9588L47.2165 21.8271C47.1201 21.6352 47.0532 21.4909 46.9672 21.2971L45.6359 18.6019C45.5433 18.6267 44.9664 19.1902 44.8327 19.3248L44.0209 20.0707C43.8862 20.1949 43.783 20.321 43.6484 20.4451L40.8395 23.0582C40.7067 23.1919 40.6084 23.3027 40.4556 23.4211L39.6553 24.1785C39.5302 24.3046 39.2732 24.4574 39.2732 24.5758V45.6456C39.2732 45.7859 39.4174 45.9044 39.5893 46.0763L40.7584 47.2443C41.021 47.506 41.2588 47.7448 41.5215 48.0074L43.826 50.3445C44.1603 50.6788 45.144 51.7551 45.3761 51.9108V31.3606C45.4802 31.437 45.6492 31.9031 45.7227 32.054L46.3732 33.5133C46.6664 34.1962 47.077 35.0051 47.3617 35.7062L50.6357 43.0153C50.7665 42.9198 51.67 40.428 51.777 40.1635C51.905 39.8445 52.0195 39.5083 52.1523 39.1759L54.3929 33.3319C55.0194 31.7713 55.6163 30.0655 56.2524 28.4715C56.3164 28.313 56.3737 28.1449 56.4348 27.972L56.642 27.4974C56.642 38.2581 56.6764 49.0723 56.642 59.8321C56.6411 59.9954 56.5886 60.2543 56.7395 60.2543H63.3944V10.097H56.2524L51.8791 21.8262C51.3395 23.2101 50.8315 24.7047 50.288 26.0791C50.2135 26.2672 50.1552 26.443 50.0836 26.6206C50.0368 26.7371 49.8993 27.0494 49.8888 27.1726ZM29.5659 20.0956V50.483C29.5659 50.5756 30.0654 51.0302 30.159 51.1238L31.2296 52.1954C31.477 52.4762 31.5753 52.5154 31.6947 52.671C31.8991 52.9365 31.8934 52.8573 32.0262 52.99C32.1064 53.0693 32.1255 53.1323 32.3165 53.3157L39.3305 60.3593C39.3945 60.4233 39.4337 60.4338 39.5091 60.5055C39.6323 60.622 39.681 60.7223 39.8004 60.8311L40.1099 61.1387C40.2503 61.2991 40.3496 61.3536 40.4308 61.4338L47.2843 68.3456C47.377 68.4382 47.4486 68.444 47.6033 68.6445C47.7666 68.8566 47.7972 68.8222 48.0637 69.1249C48.1172 69.1861 48.1658 69.229 48.225 69.2883C48.439 69.5012 48.629 69.6913 48.842 69.9043C48.9528 70.0151 49.0398 70.102 49.1505 70.2128C49.2212 70.2834 49.4017 70.5136 49.4991 70.5136H79.9839C80.09 70.5136 81.1682 69.378 81.258 69.2883L99.4711 51.0751C99.5819 50.9643 99.6688 50.8774 99.7796 50.7666C99.8493 50.696 100.08 50.5154 100.08 50.418V19.9982C100.08 19.8177 99.7032 19.5082 99.5198 19.3248C99.3059 19.1109 99.1158 18.9218 98.9029 18.7079C98.5371 18.3421 97.3901 17.2342 97.051 16.8264L87.7677 7.47532C86.9311 6.63963 86.1203 5.82591 85.2836 4.99118L84.9847 4.6741C84.6122 4.22809 81.8759 1.55103 81.258 0.933101C81.2016 0.877707 81.1663 0.845235 81.1109 0.787931C81.0068 0.679053 80.4376 0 80.3087 0H49.6615C49.565 0 49.3979 0.215845 49.3292 0.283655L29.8668 19.747C29.7961 19.8167 29.5659 19.9972 29.5659 20.0956Z" fill="white"/>
</g>
<defs>
<clipPath id="clip0_4_5054">
<rect width="140" height="70" fill="white"/>
</clipPath>
</defs>
</svg>
