<svg width="140" height="70" viewBox="0 0 140 70" fill="none" xmlns="http://www.w3.org/2000/svg">
<g clip-path="url(#clip0_4_5053)">
<path fill-rule="evenodd" clip-rule="evenodd" d="M61.3934 35.6288C62.6598 35.6288 63.8584 35.8599 65.1487 35.8513C65.5307 35.8494 65.6597 35.9115 66.0426 35.9096C66.3635 35.9086 66.737 35.8914 67.0522 35.9086C68.671 35.9956 70.4207 35.9956 72.0386 35.9086C72.3366 35.8924 72.689 35.9086 72.9927 35.9096L75.3421 35.794C76.0861 35.7329 76.8636 35.6288 77.642 35.6288C77.642 38.282 77.215 42.4356 76.6 45.1184C75.8751 48.2787 74.9802 51.2298 73.0165 53.8601C72.6288 54.3787 72.2067 54.777 71.6871 55.1647C70.1781 56.2907 68.2403 56.1322 66.8974 54.7741C66.5985 54.4713 66.3034 54.224 66.0513 53.883C65.546 53.2021 65.0656 52.5039 64.6798 51.7255C62.7935 47.9158 61.8891 43.2216 61.5644 38.9868C61.5424 38.7003 61.5166 38.4348 61.5051 38.2056L61.4516 36.4664C61.4478 36.1398 61.3934 36.0051 61.3934 35.6288ZM68.1725 0H72.0156C72.6966 0.00955068 73.283 0.028652 73.5991 0.0639896C74.4683 0.161406 75.3746 0.138485 76.2332 0.232082C81.9923 0.858606 84.8632 1.23299 90.4847 2.67706C94.6651 3.75055 98.8091 5.31495 102.669 7.24514L104.518 8.19735C105.125 8.49724 105.678 8.86781 106.273 9.1868C107.654 9.92793 110.104 11.5907 111.299 12.5658C111.935 13.0854 112.615 13.5667 113.207 14.1312C113.353 14.2706 113.429 14.2993 113.573 14.4378L115.028 15.7835C116.188 16.9448 117.321 18.1386 118.304 19.4547C118.52 19.7441 118.689 19.9571 118.904 20.2551C119.901 21.638 120.787 23.084 121.551 24.6102C121.646 24.7983 121.683 24.9273 121.774 25.1164C122.647 26.93 123.234 28.738 123.649 30.8048C123.92 32.159 124.166 34.3041 124.037 35.8552C124.019 36.0777 124.037 36.3547 124.036 36.5829C124.035 37.708 123.657 39.7776 123.396 40.8167C123.194 41.6209 122.99 42.2598 122.753 42.9742C121.987 45.2807 120.16 48.7935 118.587 50.6855L117.696 51.8115C117.575 51.9633 117.478 52.0674 117.367 52.2107L116.398 53.3148C116.017 53.7703 114.181 55.5993 113.557 56.0759C113.306 56.2678 113.078 56.5104 112.805 56.7243C111.504 57.7463 110.221 58.7892 108.839 59.7061C107.435 60.6382 105.987 61.5131 104.498 62.3125C103.422 62.8903 102.346 63.4748 101.214 63.959L99.7814 64.5989C99.4605 64.7316 99.1539 64.873 98.7976 65.0153C97.1864 65.6571 95.3661 66.4183 93.711 66.8758C93.3204 66.9837 93.0376 67.0849 92.6375 67.2033C78.831 71.3025 63.6302 71.5862 49.5926 68.0982C45.9786 67.2005 42.5757 65.9875 39.1728 64.5674C37.2875 63.7804 35.3964 62.8587 33.6343 61.8139C31.8875 60.7777 30.1531 59.7385 28.5276 58.517L26.5745 56.9965C25.9728 56.5266 25.1142 55.6709 24.7264 55.371C24.2021 54.967 23.7723 54.4551 23.3072 53.989C23.1716 53.8544 23.078 53.7608 22.9414 53.6261L21.9624 52.5326C20.2051 50.6425 18.6369 48.1669 17.4842 45.8624C16.6752 44.2464 16.1155 42.6505 15.6504 40.8053C15.1165 38.6917 15 36.8494 15 34.5639C15 31.7388 15.8309 28.1841 17.0362 25.6197L18.4373 22.8748C19.1364 21.596 21.0991 18.7996 22.185 17.7156C22.3387 17.5618 22.3674 17.5236 22.5002 17.3574C22.6855 17.1263 22.9729 16.8741 23.1954 16.6526C23.3454 16.5036 23.3731 16.4358 23.503 16.2877L27.5276 12.7482C28.5639 11.9393 29.6393 11.1934 30.7338 10.4647C33.2628 8.77803 35.171 7.87167 37.7669 6.57182L40.6226 5.33787C44.7294 3.6942 48.967 2.43447 53.3202 1.56345C55.6763 1.0926 60.3648 0.347645 62.9625 0.224441C64.6836 0.142305 66.3454 0 68.1725 0ZM73.0471 66.8882C73.0576 66.8786 73.0729 66.8528 73.0777 66.8624L73.4062 66.6303C76.089 64.7928 78.1625 60.9018 79.3391 57.8848C80.042 56.0845 80.3563 54.882 80.8987 53.0578C81.1509 52.2069 81.4507 50.7848 81.6246 49.9185C82.041 47.8422 82.4087 45.4144 82.5768 43.2512C82.6035 42.9093 82.6799 42.4327 82.6847 42.0707C82.6885 41.7823 82.7201 41.7279 82.7373 41.5072C82.7554 41.2876 82.7258 41.0765 82.7563 40.854L82.8528 38.3737C82.8471 36.8771 82.9789 36.7873 82.8413 34.9574C83.2071 34.9268 83.6646 34.8208 84.0533 34.7559C89.5402 33.839 95.1273 32.2374 100.11 29.7465C103.091 28.2557 103.719 27.6492 106.026 25.8575L107.082 24.8413C107.206 24.6837 107.299 24.6025 107.436 24.4669C107.589 24.317 107.615 24.2616 107.747 24.105C108.41 23.3199 108.659 22.999 109.225 22.0544C109.851 21.0105 110.532 19.343 110.532 17.7022C111.032 18.2781 111.303 18.6964 111.747 19.2866L112.587 20.5206C113.363 21.809 114.212 23.2473 114.774 24.6646C116.512 29.0532 117.251 33.4847 116.279 38.2944C115.889 40.2246 115.275 42.3334 114.417 44.1069C113.573 45.849 112.661 47.4907 111.5 49.0341L109.65 51.3292C109.281 51.7093 108.524 52.5822 108.171 52.8754C107.767 53.2107 107.429 53.6586 106.938 54.0511L105.689 55.1561C102.624 57.5648 102.297 57.7577 99.2876 59.5666C98.7662 59.8799 98.2552 60.1091 97.7327 60.4214C95.899 61.5197 91.0998 63.3592 89.2756 63.9542C85.6158 65.149 81.2741 66.062 77.4786 66.5004C76.8025 66.5787 75.9992 66.6972 75.2887 66.7201L73.0471 66.8882ZM28.5037 17.7585C28.5037 20.0325 30.0891 22.9426 31.5981 24.4679C33.8569 26.7495 35.8979 28.2328 38.9254 29.7465C41.4124 30.99 44.0818 32.0416 46.9738 32.904C49.0711 33.5286 51.5533 34.1408 53.749 34.5314L56.1825 34.9564C56.1825 35.815 56.1825 36.6746 56.1825 37.5332L56.2914 40.6735C56.3095 40.8931 56.279 41.1042 56.3096 41.3277L56.5139 43.7001C56.5512 44.1442 56.5875 44.4851 56.641 44.9178C57.3343 50.4811 58.2321 54.308 60.3523 59.4138C60.6933 60.2352 61.679 62.0527 62.1775 62.7986C62.5414 63.342 62.8652 63.8119 63.2739 64.3353C63.4726 64.5893 63.6492 64.8033 63.8737 65.0248C64.2395 65.3849 63.9157 65.1442 64.5441 65.6982C65.1477 66.2282 65.0188 66.1843 65.7972 66.7421L65.9872 66.8882L64.5833 66.7793C63.0227 66.659 61.9139 66.5692 60.3676 66.3447C56.3048 65.7536 53.069 65.0382 49.1437 63.7298C46.7474 62.9304 45.801 62.4824 43.5594 61.5264C41.8661 60.8034 39.6493 59.5103 38.0315 58.538L36.638 57.6336C36.3257 57.4206 36.0287 57.2057 35.7231 56.9813C34.96 56.4206 33.0355 54.9537 32.2982 54.2421C30.5542 52.5583 29.4168 51.5278 27.8313 49.4095C27.2564 48.6416 26.4885 47.5184 25.9785 46.6675C24.9747 44.9904 24.1772 43.2264 23.5517 41.364C22.844 39.2533 22.7657 38.2944 22.4763 36.2209C22.2366 34.5066 22.4037 32.0893 22.63 30.4839C22.9739 28.0465 23.8 25.5681 24.842 23.3973C25.0025 23.063 25.1724 22.6991 25.3548 22.3973C26.3615 20.7364 26.5114 20.3181 27.7912 18.6143C27.9651 18.3831 28.3012 17.8942 28.5037 17.7585ZM69.2374 13.3327C70.2287 13.3327 70.7655 13.4235 71.5907 14.0042C72.1073 14.3671 72.5056 14.7663 72.9182 15.2543C74.1817 16.749 74.8923 18.5646 75.5609 20.3429C75.9209 21.3028 76.4653 23.4345 76.6573 24.401C76.7528 24.8843 77.0259 26.1775 77.0259 26.6091C71.625 27.059 67.4103 27.059 62.0094 26.6091C62.0094 25.9234 62.7085 23.0315 62.8718 22.3744C63.2281 20.9418 63.9148 19.046 64.5871 17.7022C65.0561 16.7643 65.4238 16.1636 66.0751 15.325C66.2031 15.1598 66.2337 15.1416 66.3664 14.9993C66.5708 14.7806 66.4572 14.8246 66.7714 14.5648L66.8335 14.5142C66.9099 14.4492 66.9328 14.4244 67.0102 14.3547C67.5001 13.9134 68.4685 13.3327 69.2374 13.3327ZM68.7894 4.20134C71.1294 4.20134 73.028 4.25005 75.345 4.36944L80.1872 4.84888C83.3876 5.29203 86.2872 5.81159 89.0836 6.59761C90.457 6.98441 91.7865 7.40273 93.0424 7.90701C94.3232 8.41988 95.4759 8.96809 96.6545 9.61658C97.4405 10.0502 99.0889 11.2536 99.6753 11.9183C100.085 12.3834 100.491 12.8867 100.783 13.4435C102.224 16.1894 100.629 18.5847 98.5732 20.1987C97.7853 20.8176 97.24 21.1662 96.3527 21.6762C95.623 22.0965 94.6651 22.553 93.8666 22.8882C91.5993 23.8404 89.3158 24.5309 86.8421 25.1078L83.7735 25.7372C83.2864 25.8174 82.6007 25.9931 82.1241 25.9931C81.9904 24.3848 81.0515 20.5101 80.5797 18.854C79.3104 14.3957 77.1549 9.23551 73.4397 6.44193C71.2029 4.76006 68.5783 4.63399 66.1381 6.0876L65.1888 6.76379C65.0599 6.87935 65.0045 6.90037 64.8803 7.01593L64.059 7.81914C63.9587 7.94903 63.9004 7.99678 63.7877 8.10757L63.2739 8.71404C60.5634 12.1828 59.0229 16.5208 57.9523 20.7603C57.576 22.2531 57.2923 23.7688 57.0383 25.2806C56.9151 26.0151 57.0402 26.0332 56.6591 25.9778C54.9763 25.7343 52.8627 25.2749 51.2515 24.8728C50.6327 24.7181 48.4895 24.1432 47.8572 23.8968C46.3931 23.3256 45.6156 23.127 44.0245 22.3515L43.2767 21.978C42.7639 21.724 42.3446 21.4833 41.8842 21.1863C40.1995 20.0994 38.318 18.6238 37.8376 16.5485C37.5234 15.1923 37.9025 14.0013 38.4651 13.0968C38.9722 12.2822 39.8194 11.4178 40.5815 10.8429C40.9989 10.5287 41.3914 10.2316 41.8355 9.96804C42.0552 9.83815 42.2681 9.70827 42.5002 9.56787L43.9309 8.81337C45.1267 8.21454 46.5736 7.67493 47.8553 7.24706C51.0366 6.18693 55.2303 5.28439 58.5454 4.88326C60.678 4.62635 62.3886 4.49359 64.5336 4.31595L66.6615 4.25865C67.0588 4.26056 67.2412 4.19848 67.6682 4.20039C68.0416 4.20325 68.416 4.20134 68.7894 4.20134Z" fill="white"/>
</g>
<defs>
<clipPath id="clip0_4_5053">
<rect width="140" height="70" fill="white"/>
</clipPath>
</defs>
</svg>
