<svg width="140" height="70" viewBox="0 0 140 70" fill="none" xmlns="http://www.w3.org/2000/svg">
<g clip-path="url(#clip0_4_5050)">
<path fill-rule="evenodd" clip-rule="evenodd" d="M89.7519 46.2216L95.9655 45.8167C95.6208 46.8472 94.7029 48.3323 94.1022 49.2712C89.0976 57.0951 80.0617 61.8742 70.3134 61.8809C64.1408 61.8857 58.4295 59.8524 54.3055 57.0043C52.3132 55.629 50.4212 54.0207 48.7966 52.0943C47.8846 51.0132 47.3239 50.2463 46.5914 49.1222C46.2237 48.5587 44.8885 46.3935 44.7997 45.6744C46.8817 45.7565 48.9896 45.9638 51.0678 46.0621C53.2291 46.1634 55.3083 46.2407 57.4582 46.3343C64.8351 46.6552 82.6423 46.895 89.7519 46.2216ZM83.0062 32.6979C82.8305 32.9959 81.8238 34.9203 81.8086 35.2412L84.2831 35.2393C84.2593 34.9174 83.862 34.2164 83.7063 33.9032C83.564 33.6195 83.2555 32.8516 83.0062 32.6979ZM55.8374 30.3016L55.8508 38.9593C55.7104 39.0863 56.0838 39.0567 55.5986 39.0806C54.9817 39.0806 53.2148 39.1704 52.7373 39.0128C52.6121 38.2554 52.6265 30.5375 52.7755 30.2605C52.9416 30.1297 52.7564 30.1813 53.0868 30.1478L55.5986 30.1517C56.0351 30.1755 55.718 30.1335 55.8374 30.3016ZM81.2002 30.2252L84.733 30.2405L88.9286 39.0099L86.1923 39.0156C85.9077 38.646 85.497 37.4522 85.1083 37.4522H81.1467C80.5374 37.4522 80.5861 37.9259 80.0541 39.0261L77.293 38.9946L81.2002 30.2252ZM41.1991 39.0357C40.4159 39.0386 40.7301 38.7406 40.7301 35.9107C40.7301 34.7933 40.5831 31.0399 40.7712 30.208L45.2075 30.2204C45.5972 30.7896 47.3793 34.3836 48.0068 35.5831C48.2905 36.1256 48.1978 36.1323 48.5025 36.2631L48.5082 30.2328L50.7545 30.2548L50.7555 39.0223L46.6535 39.0214L44.239 34.6577C44.0538 34.3244 43.7319 33.4657 43.3986 33.333L43.3566 39.0166L41.1991 39.0357ZM89.7194 30.2262L94.361 30.2281C94.7335 31.1631 95.3648 32.312 95.8595 33.3311C96.0381 33.6988 97.1622 36.1992 97.3599 36.2736L97.3743 30.2252L100.005 30.2328C100.055 31.2834 100.122 38.4732 99.9635 39.0271L95.8099 39.0176C95.2435 38.1723 94.6743 37.0406 94.1031 36.0521C93.7125 35.3768 92.6954 33.4142 92.3831 33.1582C92.3401 34.5698 92.3745 36.0301 92.3745 37.4474C92.3745 39.2019 92.5349 39.0452 91.8263 39.0328C91.1367 39.0214 90.4366 39.0452 89.7127 39.0214L89.7194 30.2262ZM60.4542 33.8C61.3768 33.7198 62.7034 33.7905 63.6833 33.7905C65.0567 33.7905 65.4654 33.6787 66.241 34.4848C67.6086 35.905 66.6602 38.7291 65.4874 38.9287C65.3222 39.0749 65.7071 39.0281 65.22 39.0663L57.7265 39.0357C57.6282 38.6374 57.6368 37.3128 57.7275 36.8753L64.3767 36.8667L64.3595 35.7971C61.9842 35.373 59.2966 36.542 58.0675 34.8191C56.8612 33.1277 57.9911 30.4105 59.7837 30.2672C59.8697 30.2032 59.6567 30.1946 60.0454 30.1536C61.2307 30.0924 64.0261 30.1669 65.5438 30.1526C65.9353 30.1497 66.0566 30.1106 66.1836 30.2586C66.3584 30.5795 66.283 32.0007 66.2295 32.4753C65.3613 32.7542 61.7368 32.4209 60.4523 32.5661L60.4542 33.8ZM75.8088 38.8647C75.762 38.9392 75.8719 39.0357 75.4115 39.0682C74.3523 39.1427 68.2237 39.0787 67.9075 39.0338C67.7987 38.6365 67.8073 37.3147 67.9095 36.8753L74.5539 36.8572V35.799C73.2626 35.5726 70.4901 36.01 69.4223 35.6815C68.1845 35.3014 67.4357 33.7637 67.8913 32.1993C68.0852 31.5317 68.4968 30.9721 69.0193 30.6512C69.7929 30.1765 70.173 30.2252 71.2025 30.2252C72.7373 30.2262 74.9187 30.0982 76.3857 30.25L76.3723 32.44C75.4373 32.5479 71.0392 32.3063 70.6629 32.5317C70.5311 32.6463 70.5607 32.9376 70.5626 33.1639L70.6247 33.6663C70.6266 33.6558 70.6371 33.7045 70.6476 33.7207C70.9886 33.9175 73.191 33.7905 73.7898 33.7905C75.0849 33.7905 75.5853 33.6338 76.3532 34.3979C77.6893 35.7273 77.0561 38.4388 75.8088 38.8647ZM45.048 24.2341C45.2362 23.4308 46.4701 21.5293 46.9218 20.8493C50.3314 15.7225 55.7887 11.7045 61.8266 9.87175C64.4139 9.08669 68.025 8.45443 70.8004 8.57572C79.4791 8.95489 86.6966 12.1725 91.9819 18.3642C93.1022 19.6755 95.6188 23.1949 95.9827 24.7231L89.7662 24.2971C88.7853 24.2035 87.622 24.1557 86.6441 24.1204C81.2451 23.9218 76.2529 23.6983 70.7174 23.6983C67.7557 23.6983 63.8285 23.6209 60.9212 23.7537C59.8764 23.8014 58.7761 23.7212 57.7437 23.811C56.7543 23.8969 55.4888 23.8587 54.4669 23.875C51.4097 23.9227 48.002 24.2474 45.048 24.2341ZM29 30.718V37.5152C29.0583 37.6069 29.0191 37.4742 29.0707 37.7024L29.2426 40.5199C29.4489 44.0441 30.2979 43.8091 33.4926 44.3764L34.5002 44.555C34.5203 44.5608 34.5451 44.5694 34.5623 44.5751C34.9739 44.7117 35.4152 46.5932 35.7561 47.5014C40.9307 61.2659 55.0772 70.5138 70.3134 70.5128C79.461 70.5128 87.5065 67.4079 93.3802 62.8618C98.5385 58.8696 102.626 53.7218 104.985 47.6275L105.967 44.812C106.275 44.5035 109.676 44.578 110.62 43.7977C111.898 42.7414 111.535 40.3566 111.716 39.4798C111.72 39.4578 111.732 39.4292 111.736 39.413C111.74 39.3958 111.758 39.3833 111.76 39.3499C111.764 39.3155 111.776 39.3069 111.788 39.2888V31.2395L111.693 30.9014C111.686 30.8298 111.693 30.6588 111.693 30.5776L111.611 28.5643C111.226 25.2006 107.142 26.5663 106.075 25.7832C105.783 25.532 105.675 24.7756 105.54 24.3773C105.054 22.939 104.494 21.6067 103.869 20.303C99.9778 12.1859 92.1911 5.27596 83.6614 2.28278C81.6787 1.58654 79.8153 1.04215 77.6301 0.620964C73.3581 -0.200394 67.7519 -0.192753 63.497 0.55984C57.7533 1.57699 51.9407 4.10219 47.514 7.53183C41.1131 12.4905 37.4886 17.7587 34.8899 25.4642C33.5929 25.7412 31.4259 26.0048 30.487 26.6456C28.7373 27.8404 29.3773 29.995 29 30.718Z" fill="white"/>
</g>
<defs>
<clipPath id="clip0_4_5050">
<rect width="140" height="70" fill="white"/>
</clipPath>
</defs>
</svg>
