<svg width="140" height="70" viewBox="0 0 140 70" fill="none" xmlns="http://www.w3.org/2000/svg">
<g clip-path="url(#clip0_4_5055)">
<path fill-rule="evenodd" clip-rule="evenodd" d="M69.8338 49.6131C71.55 45.6724 75.2108 39.9545 78.9088 37.4445C80.3338 36.4771 80.2631 36.457 81.9994 35.4656C84.6669 33.9433 88.7718 32.8297 91.8003 31.6826C93.3972 31.0771 95.1106 30.462 96.804 29.8909C97.887 29.5261 101.122 28.2893 101.87 28.1164C103.047 34.841 102.34 43.598 99.8124 49.5472C98.9089 51.6741 96.929 54.8258 95.3427 56.2718C94.8384 56.7312 94.506 57.1266 93.7926 57.6882C93.4096 57.99 93.0563 58.2698 92.6561 58.5639C86.068 63.4052 75.8402 64.5895 65.8712 64.0881C55.1563 63.5494 47.7144 60.9535 42.7118 54.9318C37.2631 48.3743 35.9776 37.4273 37.3959 28.9597L47.3534 32.4008C49.0448 33.0073 53.5785 34.4036 54.845 34.9556C58.7827 36.67 61.7444 38.6441 64.4739 41.877C65.3946 42.9677 66.4443 44.4175 67.2331 45.8233C67.7728 46.7851 69.2416 49.1909 69.468 50.1851L69.8338 49.6131ZM40.6307 18.7644C40.8284 17.9382 42.1884 16.1838 42.6506 15.6375C45.215 12.6032 48.0028 10.8096 51.6569 9.23852C60.709 5.34662 77.8134 5.54241 87.0078 9.01121C89.8997 10.1019 92.0735 11.4906 94.1813 13.2288L97.1621 16.4665C97.5164 16.9364 97.9414 17.391 98.1066 17.9994C95.018 20.2065 85.7328 23.2532 81.2459 26.0076C79.7846 26.9044 77.077 28.7429 75.8612 29.9988L74.3847 31.5852C72.6407 33.5154 71.2435 35.6853 70.0544 38.0625C69.8166 38.5371 69.7516 38.8342 69.4919 39.0624C68.6428 36.8419 66.174 33.7188 64.3966 31.8182C62.5046 29.7954 60.3605 28.1259 57.4733 26.4928C54.2547 24.6715 48.4842 22.4194 44.6754 20.8283C43.7901 20.4587 41.3327 19.2925 40.6307 18.7644ZM26 35.2202C26 41.4253 26.9255 46.4346 29.3446 51.9501C30.3704 54.2891 31.7103 56.0493 33.184 57.9565L34.3043 59.2315C35.2765 60.2974 37.1065 61.7978 38.3108 62.6851C46.0392 68.3792 58.0683 70.6303 69.7937 70.509C82.1752 70.3801 92.7783 68.5119 101.107 62.5141C104.477 60.0873 107.959 56.2489 109.967 51.6655C112.234 46.49 113.205 41.4234 113.205 35.0292C113.205 27.4278 111.447 19.3852 106.919 13.5917L105.255 11.6205C104.808 11.1563 104.395 10.8688 103.992 10.3999L101.337 8.17457C99.4466 6.83557 97.6033 5.70477 95.2357 4.61504C83.4483 -0.810703 63.8665 -1.16217 51.2558 2.04972C44.7145 3.71632 39.6546 6.19281 35.2622 10.3493C28.5519 16.6976 26 25.638 26 35.2202Z" fill="white"/>
</g>
<defs>
<clipPath id="clip0_4_5055">
<rect width="140" height="70" fill="white"/>
</clipPath>
</defs>
</svg>
