<svg width="16" height="20" viewBox="0 0 16 20" fill="none" xmlns="http://www.w3.org/2000/svg">
<path opacity="0.5" fill-rule="evenodd" clip-rule="evenodd" d="M14.3307 15.5725L14.5213 15.8331C14.5705 15.9283 14.6256 16.0568 14.6736 16.1858C14.7681 16.4397 14.8259 16.6818 14.8436 16.9583C14.8821 17.5597 14.8532 18.2412 14.8532 18.8508H12.3842L14.3307 15.5725ZM10.9787 18.8508L9.78425 18.8427C9.94663 18.5432 12.7066 13.7817 12.9126 13.596L13.8408 14.1329L11.7454 17.7075C11.5819 17.989 11.2195 18.7323 10.9787 18.8508ZM8.48514 18.8508H1.11676C1.22629 17.5881 0.913611 15.977 2.21339 14.8882C2.66986 14.5058 3.18166 14.2547 3.93537 14.0541C4.62344 13.8708 5.28621 13.6743 5.96309 13.5085C6.74009 15.4131 9.27983 15.4186 10.0644 13.5085L11.3768 13.8603C11.2614 14.2091 9.53518 17.0177 9.19629 17.6095C8.97992 17.9871 8.63028 18.4806 8.48514 18.8508ZM6.97572 12.2996C7.92966 12.4478 8.09787 12.4478 9.05182 12.2996C9.05182 13.1658 8.94095 13.8243 8.01388 13.8245C7.08569 13.825 6.97572 13.1662 6.97572 12.2996ZM5.04184 6.46157C8.44863 6.36051 9.66016 4.57718 10.1415 4.40124C11.302 5.47801 10.9891 6.11996 10.9879 8.16545C10.987 9.43386 10.4947 10.5438 9.25049 11.0655C7.80311 11.6721 6.53828 11.1369 5.78592 10.3353C4.81652 9.30267 5.04184 8.07093 5.04184 6.46157ZM12.1323 7.54401V6.46288C12.6548 6.46288 13.2137 6.41115 13.2378 6.97452C13.264 7.5881 12.6698 7.54401 12.1323 7.54401ZM3.89527 6.46288V7.54401C3.37227 7.54401 2.81411 7.5953 2.78947 7.03215C2.76259 6.41682 3.35727 6.46288 3.89527 6.46288ZM3.43051 5.34551C3.43051 3.68245 3.35637 2.84798 4.36631 1.90895C5.39551 0.952234 6.36178 1.12358 8.01388 1.12358C9.66083 1.12358 10.6349 0.952671 11.6612 1.90895C12.6696 2.84841 12.597 3.68355 12.5964 5.34551C11.9318 5.34551 12.0639 5.36429 11.9546 5.07681C11.8388 4.77232 11.7708 4.56473 11.5566 4.27333C11.2401 3.84289 10.1415 2.76896 9.55309 3.32077C9.40191 3.46243 9.32217 3.5982 9.15642 3.75034C7.49088 5.27981 6.0164 5.34551 3.43051 5.34551ZM3.91924 8.69826C4.03123 9.53601 4.16316 9.95751 4.56879 10.5794C4.7715 10.89 4.88147 11.0122 5.14577 11.2742C5.50616 11.631 5.98034 11.7627 5.82915 12.3114C5.64548 12.9769 0.0199155 12.3496 0.0275309 17.6507C0.0315626 20.4503 -0.644418 19.9684 4.46867 19.9684C7.49805 19.9684 10.5276 19.9684 13.5572 19.9684C16.0836 19.9684 15.9991 20.4025 15.9998 17.9648C16 17.2565 15.9955 16.6196 15.7915 15.9748C15.6575 15.552 15.2629 14.7236 14.9609 14.5394C15.3272 13.4938 15.4763 13.7815 13.8957 12.8606C13.0307 12.3566 12.4535 11.8247 12.0162 12.8746C11.7777 12.8359 10.2472 12.4849 10.1979 12.3114L10.1986 11.7784C11.2092 11.2628 11.9063 10.1911 12.1081 8.69804C12.8387 8.51316 13.1834 8.81591 13.8117 8.22504C14.4823 7.59399 14.5847 6.72197 14.0043 5.97023C13.699 5.57514 13.7351 5.84341 13.7427 5.15125C13.7642 3.18456 13.6688 1.85765 11.8104 0.633331C10.7133 -0.0893876 9.49352 0.00599987 8.01388 0.00599987C6.52081 0.00599987 5.40246 -0.103139 4.25701 0.609538C2.38809 1.7723 2.26893 3.19351 2.28439 5.08795C2.28976 5.74038 2.3601 5.56052 2.051 5.93421C1.90608 6.10927 1.76497 6.35723 1.69352 6.65125C1.52934 7.32704 1.81313 7.8413 2.18427 8.19317C2.86249 8.836 3.12298 8.49505 3.91924 8.69826Z" fill="white"/>
</svg>
