<svg width="20" height="16" viewBox="0 0 20 16" fill="none" xmlns="http://www.w3.org/2000/svg">
<path opacity="0.5" fill-rule="evenodd" clip-rule="evenodd" d="M4.75012 4.16658L15.2277 4.16527L15.2396 14.7265L4.76311 14.7278L4.75012 4.16658ZM16.5056 14.716L16.4903 4.18322C18.5547 3.94354 18.7091 4.37343 18.7069 5.67798V13.237C18.7097 14.6761 18.3874 14.8744 16.5056 14.716ZM3.49732 4.18322L3.50013 14.716C1.60903 14.8694 1.28111 14.6886 1.28392 13.237V5.67798C1.28284 4.99988 1.26293 4.52118 1.74626 4.26508C2.04236 4.10814 3.1088 4.13769 3.49732 4.18322ZM12.1453 2.8999H7.84576C7.65702 2.73354 7.74209 1.51742 7.75313 1.26701C8.34013 1.26701 11.9451 1.22674 12.2152 1.29153C12.2531 1.57345 12.2355 1.86523 12.2358 2.15065C12.236 2.6287 12.3141 2.80796 12.1453 2.8999ZM6.51699 2.90055C5.28886 2.9034 4.0603 2.90143 2.83218 2.90099C1.88414 2.90077 0.854492 2.8872 0.277874 4.03963C-0.126018 4.84622 0.0293924 6.48217 0.0293924 7.5048C0.0293924 8.74368 0.0293924 9.98235 0.0293924 11.2212C0.0293924 12.1373 -0.0885736 14.0293 0.222246 14.7442C0.405794 15.166 0.76921 15.495 1.08328 15.697C1.53219 15.9857 2.04171 16.0012 2.64516 15.9999C7.53234 15.9886 12.4585 15.9886 17.3457 15.9999C20.4272 16.0072 19.9614 13.7564 19.9614 11.2212C19.9614 9.98235 19.9614 8.74368 19.9614 7.5048C19.9614 5.72242 20.3272 3.94223 18.8056 3.13104C18.2747 2.8478 17.8099 2.90077 17.1587 2.90099C15.9305 2.90143 14.7022 2.9034 13.4741 2.90055C13.4243 1.81488 13.6803 0.342883 13.0974 0.0850368C12.8409 -0.0283456 7.1501 -0.0283456 6.89339 0.0850368C6.4698 0.272402 6.5237 0.760516 6.52457 1.26855C6.52565 1.80372 6.54123 2.36888 6.51699 2.90055Z" fill="white"/>
</svg>
