<svg width="22" height="22" viewBox="0 0 22 22" fill="none" xmlns="http://www.w3.org/2000/svg">
<path d="M7.29226 1.66666H4.33329C2.86053 1.66666 1.66663 2.86056 1.66663 4.33332V6.99999C1.66663 14.3638 7.63616 20.3333 15 20.3333H17.6666C19.1394 20.3333 20.3333 19.1394 20.3333 17.6667V15.824C20.3333 15.319 20.048 14.8573 19.5962 14.6315L16.375 13.0208C15.6493 12.658 14.7704 13.022 14.5138 13.7918L14.1168 14.9828C13.8596 15.7544 13.0682 16.2136 12.2707 16.0541C9.07901 15.4158 6.58415 12.9209 5.9458 9.72921C5.78631 8.93176 6.24559 8.14033 7.0171 7.88316L8.49528 7.39044C9.15624 7.17012 9.53614 6.47806 9.36717 5.80215L8.58578 2.67661C8.43739 2.08305 7.90408 1.66666 7.29226 1.66666Z" stroke="currentColor" stroke-width="2"/>
</svg>
