<svg width="18" height="20" viewBox="0 0 18 20" fill="none" xmlns="http://www.w3.org/2000/svg">
<path opacity="0.5" fill-rule="evenodd" clip-rule="evenodd" d="M6.71524 8.71521C6.99315 8.54715 8.86683 7.46537 8.99987 7.46537C9.13268 7.46537 11.0066 8.54715 11.2874 8.71499L11.2845 11.2872C11.0066 11.4553 9.1329 12.537 8.99987 12.537C8.86705 12.5372 6.99315 11.4553 6.71256 11.2874L6.71524 8.71521ZM8.22977 15.4234C8.16861 15.4812 8.06012 15.5346 7.87083 15.6351C7.40632 15.8818 6.93556 16.1413 6.47305 16.3999C6.04046 16.6131 5.50295 16.8739 5.43576 17.2765C5.42951 17.314 5.42773 17.3601 5.43175 17.4107C5.4188 17.818 5.8043 18.1617 6.31926 18.0315C6.4918 17.9878 7.61704 17.3607 8.06727 17.0819C8.1282 17.0604 8.19026 17.0446 8.26057 17.0331C8.33758 17.2689 8.29562 17.5088 8.29272 17.8243C8.28312 18.9382 8.09093 19.9407 8.97732 19.9978C9.8001 20.0508 9.70434 19.1124 9.69853 18.6466C9.69452 18.3118 9.65769 17.3759 9.71572 17.03C9.77755 17.0389 9.83269 17.0509 9.88514 17.0663C10.3927 17.3516 10.9122 17.6541 11.4224 17.9201C11.5825 18.0037 11.7628 18.0467 11.9323 18.0419C12.0372 18.0423 12.1269 18.0221 12.203 17.9869C12.4008 17.9053 12.5472 17.7301 12.5669 17.4437C12.5695 17.4048 12.5691 17.3675 12.5662 17.3318C12.5651 17.2934 12.5606 17.2585 12.5533 17.2283C12.5347 17.1514 12.4966 17.0793 12.4439 17.0109C12.3881 16.9354 12.316 16.8683 12.2329 16.8064C11.9133 16.5586 11.4396 16.3695 11.1637 16.2077C10.6222 15.8901 10.2747 15.7383 10.0528 15.6206C9.92644 15.5483 9.84162 15.4899 9.78537 15.4299C9.60925 15.2189 9.6992 14.8858 9.69965 13.7361C10.2164 13.5302 11.0325 13.0128 11.5805 12.6992C12.1055 12.3987 12.0666 12.4971 12.562 12.7854C13.7144 13.4564 13.4566 12.8693 13.4417 15.2502C13.4376 15.864 13.3097 16.4765 13.8417 16.7297C14.4001 16.9957 14.8205 16.5386 14.8374 16.0034C14.8573 15.3804 14.8443 14.7292 14.8472 14.1032C15.1432 14.1877 16.0343 14.734 16.347 14.9145C16.7645 15.1555 17.5417 15.6944 17.9102 14.9818C18.3089 14.2109 17.3082 13.8642 16.3176 13.3192C16.1861 13.2469 16.0698 13.1856 15.9453 13.1198L15.5848 12.8465C15.7957 12.7722 17.3453 11.903 17.4892 11.7601C18.0868 11.1676 17.4397 10.2408 16.4819 10.7806C15.8488 11.1372 15.2162 11.503 14.5807 11.8696C14.0783 12.1592 14.1939 12.139 13.6675 11.8348C13.3818 11.6696 12.9988 11.4342 12.6941 11.3178L12.7044 8.68459C14.1461 8.11418 13.7553 7.65472 14.6205 8.15695C15.2336 8.51306 15.8644 8.87654 16.4819 9.22201C17.4524 9.76463 18.1109 8.79273 17.4562 8.21189C17.291 8.06532 15.7948 7.23325 15.5848 7.15791C15.7589 6.93838 16.0187 6.84827 16.3178 6.68346C17.3125 6.13563 18.3026 5.79516 17.9111 5.01933C17.3801 3.96708 15.8138 5.62405 14.8472 5.89938C14.8448 5.26947 14.8711 4.55813 14.8365 3.93799C14.8073 3.41295 14.3258 2.99822 13.8001 3.2957C13.2977 3.57971 13.4381 4.19204 13.4419 4.81479C13.4562 7.11926 13.7222 6.54363 12.5213 7.23998C11.9923 7.54658 12.0704 7.58415 11.5396 7.28059C11.0102 6.97747 10.2081 6.4698 9.6992 6.26634C9.69898 5.2052 9.63425 4.83715 9.73358 4.63717H9.73425C9.77264 4.57181 9.8367 4.51427 9.94028 4.44717C10.051 4.38442 10.2066 4.31515 10.4238 4.20029C10.822 3.98945 11.4809 3.68307 11.9633 3.36279C12.2296 3.21557 12.4526 3.0562 12.5347 2.818C12.5488 2.78695 12.5586 2.75633 12.5637 2.72593C12.5698 2.68858 12.5718 2.64342 12.5684 2.59456C12.5682 2.58197 12.5678 2.56916 12.5669 2.55613C12.5242 1.93621 11.8878 1.83719 11.4224 2.07973C10.9655 2.31793 10.5012 2.58544 10.0445 2.84362C9.93916 2.88661 9.8338 2.9181 9.71103 2.9409C9.65969 2.57415 9.69452 1.67912 9.69853 1.35319C9.70434 0.887652 9.8001 -0.0510294 8.97732 0.00216906C8.09093 0.0590589 8.28312 1.0618 8.29272 2.17549C8.29562 2.49967 8.33981 2.74395 8.2541 2.98584C8.1782 2.9587 8.09249 2.92114 8.0003 2.87684C7.51436 2.58197 6.48377 2.01003 6.31926 1.96834C5.79269 1.83524 5.40139 2.19764 5.43309 2.61693C5.43063 2.67642 5.43532 2.73049 5.44581 2.77479C5.54135 3.17106 6.15809 3.44834 6.60029 3.67113C7.02172 3.90607 7.44896 4.14058 7.87083 4.36466C8.03468 4.45173 8.1378 4.50341 8.20231 4.55335C8.3858 4.76094 8.30053 5.09315 8.3003 6.26634C7.78333 6.47219 6.96725 6.98963 6.41926 7.30339C5.8938 7.60412 5.93354 7.50511 5.43867 7.21632C4.28575 6.54428 4.54334 7.13598 4.55808 4.75225C4.56187 4.13862 4.68955 3.52738 4.15785 3.27311C3.5844 2.99909 3.17815 3.48569 3.16141 3.999C3.1411 4.62088 3.15494 5.27403 3.15248 5.89938C2.8565 5.81492 1.96541 5.2686 1.65269 5.08794C1.24108 4.8504 0.453344 4.30039 0.0890546 5.0202C-0.30336 5.79537 0.68549 6.13476 1.68193 6.68346C1.98952 6.85305 2.24064 6.93816 2.41497 7.15791C2.20135 7.23456 0.658704 8.09637 0.510711 8.2425C-0.0881795 8.83398 0.564729 9.75486 1.51786 9.22201C2.14577 8.8709 2.79645 8.50307 3.41967 8.1335C3.91432 7.84037 3.81521 7.86859 4.33285 8.16737C4.61812 8.33218 5.00116 8.56843 5.30563 8.68459L5.29536 11.3178C4.98621 11.4403 4.59714 11.6839 4.29289 11.8589C3.76655 12.1618 3.89311 12.1429 3.37726 11.8474C2.75984 11.4935 2.13573 11.1296 1.51764 10.7806C0.517407 10.2163 -0.0910813 11.2277 0.543301 11.7907C0.697543 11.9277 2.21653 12.7768 2.41497 12.8465C2.30627 12.9828 2.4297 12.8545 2.29868 12.9678L2.05448 13.1198C1.92992 13.1856 1.81363 13.2469 1.68215 13.3194C0.691516 13.8646 -0.309164 14.2107 0.0899474 14.9811C0.63348 16.0297 2.1835 14.3792 3.15248 14.1032C3.15494 14.7323 3.12815 15.4456 3.1632 16.0644C3.19288 16.5895 3.67726 17.0035 4.20004 16.7074C4.6987 16.4246 4.56165 15.806 4.55785 15.1876C4.54357 12.8834 4.27749 13.4588 5.4784 12.7626C6.00765 12.4558 5.9293 12.4183 6.46011 12.722C6.9898 13.0249 7.79159 13.5326 8.30053 13.7361C8.30075 14.9082 8.37977 15.2347 8.22977 15.4234Z" fill="white"/>
</svg>
