<svg width="17" height="20" viewBox="0 0 17 20" fill="none" xmlns="http://www.w3.org/2000/svg">
<path opacity="0.5" fill-rule="evenodd" clip-rule="evenodd" d="M15.0094 18.8144L6.17095 18.8063C6.10443 18.1437 5.88993 17.7408 5.77098 17.1963L15.0118 17.2035L15.0094 18.8144ZM9.9052 14.021L10.1541 14.0297L13.4899 14.0282L13.4893 12.8573L9.9052 12.858V14.021ZM4.29657 6.11863C4.42094 5.87755 4.88655 5.3576 5.08437 5.10566C5.25055 4.8939 5.69775 4.27166 5.86415 4.18717C5.98137 4.01863 5.92872 4.06859 6.22295 4.06815C6.3679 4.06794 6.51632 4.0725 6.66235 4.0725C7.8681 4.07293 11.7267 4.0119 12.334 4.09183L12.3184 9.75827L4.2463 9.73481C4.22615 9.5552 4.13754 6.36579 4.29657 6.11863ZM3.12462 5.68099L3.09776 10.8705H13.4852L13.4895 2.90772H5.41522C5.14482 3.02326 3.27217 5.47923 3.12462 5.68099ZM1.17982 4.62502C1.17982 4.34225 1.63591 3.9007 1.80382 3.6909C1.9258 3.53843 2.05992 3.38966 2.17887 3.25544L3.90397 1.18541L15.0129 1.19432L15.0131 15.9998L5.0237 16.0048C4.76478 15.5348 3.9564 14.8702 3.42232 14.5601C2.73007 14.1579 2.09827 13.9635 1.18242 13.8062L1.17982 4.62502ZM0.00245669 14.9462C0.901839 15.034 1.32456 14.9291 2.16912 15.2544C4.16245 16.0224 5.02673 17.6785 5.02673 19.9993L16.1905 20V0.011511L3.60714 0C3.2635 0 3.13892 0.309493 2.98227 0.49975L0.314674 3.6366C0.0581407 3.94544 -0.00490944 3.89288 0.000290558 4.43477L0.00245669 14.9462Z" fill="white"/>
</svg>
