<svg width="20" height="20" viewBox="0 0 20 20" fill="none" xmlns="http://www.w3.org/2000/svg">
<path d="M13.9993 10C13.9993 12.2091 12.2085 14 9.99935 14C7.79021 14 5.99935 12.2091 5.99935 10C5.99935 7.79087 7.79021 6.00001 9.99935 6.00001C12.2085 6.00001 13.9993 7.79087 13.9993 10ZM13.9993 10V11.3333C13.9993 12.8061 15.1933 14 16.666 14C17.6121 14 18.4431 13.5073 18.9164 12.7646C19.18 12.3511 19.3327 11.86 19.3327 11.3333V10C19.3327 4.84535 15.154 0.666672 9.99935 0.666672C4.84469 0.666672 0.666016 4.84535 0.666016 10C0.666016 15.1547 4.84469 19.3333 9.99935 19.3333C11.9823 19.3333 13.8209 18.7149 15.3327 17.6604" stroke="white"/>
</svg>
