<svg width="20" height="20" viewBox="0 0 20 20" fill="none" xmlns="http://www.w3.org/2000/svg">
<path d="M6.29226 0.666748H3.33329C1.86053 0.666748 0.666626 1.86066 0.666626 3.33341V6.00008C0.666626 13.3639 6.63616 19.3334 14 19.3334H16.6666C18.1394 19.3334 19.3333 18.1395 19.3333 16.6667V14.8241C19.3333 14.3191 19.048 13.8574 18.5962 13.6316L15.375 12.0209C14.6493 11.6581 13.7704 12.0221 13.5138 12.7919L13.1168 13.9829C12.8596 14.7544 12.0682 15.2137 11.2707 15.0542C8.07901 14.4159 5.58415 11.921 4.9458 8.7293C4.78631 7.93185 5.24559 7.14043 6.0171 6.88326L7.49528 6.39053C8.15624 6.17021 8.53614 5.47815 8.36717 4.80224L7.58578 1.6767C7.43739 1.08314 6.90408 0.666748 6.29226 0.666748Z" stroke="white"/>
</svg>
