<svg width="20" height="20" viewBox="0 0 20 20" fill="none" xmlns="http://www.w3.org/2000/svg">
<path opacity="0.5" fill-rule="evenodd" clip-rule="evenodd" d="M18.4883 10.7508C18.064 15.1696 14.1922 18.952 9.21673 18.4847C4.82865 18.0726 1.05017 14.1545 1.51449 9.21688C1.92726 4.82814 5.8445 1.05176 10.7832 1.51516C15.1478 1.92464 18.9602 5.83671 18.4883 10.7508ZM9.05971 9.76335C9.13213 9.5485 9.85438 8.3029 10.0001 8.1409C10.146 8.3029 10.8681 9.54807 10.9233 9.76792L9.05971 9.76335ZM8.18283 11.2703H11.8152C12.5126 12.1432 12.8702 13.7194 13.6922 13.7133C14.3616 13.7085 14.5658 13.0468 14.2677 12.4931C13.5615 11.1823 12.6559 9.744 11.8824 8.36858C11.6203 7.90256 11.3676 7.43698 11.0823 6.97793C10.8148 6.54758 10.6256 5.86193 10.0001 5.86193C9.37788 5.86193 9.19499 6.52866 8.94184 6.93966C8.65716 7.40176 8.41141 7.84102 8.13956 8.32791L5.77599 12.41C5.49065 12.9126 5.52828 13.6593 6.24618 13.7122C7.13654 13.7778 7.4347 12.2163 8.18283 11.2703ZM19.9735 10.8135C20.3791 5.05756 16.0782 0.398732 10.8298 0.0268782C5.06701 -0.381291 0.398169 3.91438 0.0269318 9.16447C-0.381712 14.9402 3.91502 19.6007 9.17041 19.973C14.9473 20.3823 19.602 16.0818 19.9735 10.8135Z" fill="white"/>
</svg>
