<svg width="98" height="30" viewBox="0 0 98 30" fill="none" xmlns="http://www.w3.org/2000/svg">
<path d="M46.1933 24.4878C47.572 24.4878 48.9293 24.4878 50.2865 24.4878C51.2558 24.4878 51.6992 24.0887 51.8018 23.1215C51.9209 22.0026 51.2974 21.2813 50.1715 21.2592C49.4531 21.2453 48.7346 21.2564 48.0161 21.2564C47.4133 21.2564 46.8099 21.2564 46.1933 21.2564V24.4878ZM82.2887 27.3014C85.1924 27.3014 88.0961 27.3069 90.9998 27.2952C91.4529 27.2938 91.9109 27.2474 92.3564 27.1614C93.397 26.9605 94.1945 26.3938 94.3892 25.234C94.5 24.5744 94.491 23.8719 94.4176 23.2026C94.306 22.182 93.722 21.4982 92.7811 21.2439C92.2227 21.0929 91.6358 20.9903 91.0615 20.989C85.2326 20.9709 79.4038 20.9751 73.5749 20.9834C73.1329 20.9841 72.686 21.0354 72.2509 21.1192C71.222 21.3187 70.4412 21.8813 70.2354 23.0238C70.1239 23.6411 70.1121 24.2993 70.1738 24.9257C70.2936 26.136 70.9809 26.8711 72.0992 27.1164C72.5731 27.2203 73.0629 27.2903 73.5451 27.2931C76.4599 27.309 79.374 27.3014 82.2887 27.3014ZM82.1045 29.9972C79.349 29.9972 76.5922 30.0042 73.8368 29.9945C72.3659 29.9896 70.9463 29.7256 69.6812 28.8707C67.8348 27.6236 67.083 25.791 67.2756 23.5268C67.4565 21.3977 68.5525 19.9192 70.3588 19.0151C71.4618 18.4629 72.6396 18.2827 73.8479 18.282C79.498 18.2813 85.1474 18.28 90.7975 18.2827C92.2497 18.2834 93.6485 18.5488 94.8984 19.3781C96.6651 20.5497 97.4737 22.2783 97.3656 24.4635C97.2499 26.8005 96.0922 28.3947 94.1003 29.3349C93.0464 29.8323 91.9268 29.9917 90.7864 29.9945C87.8924 30.0028 84.9984 29.9972 82.1045 29.9972ZM58.284 24.4815C59.7673 24.4815 61.2133 24.4836 62.6586 24.4802C63.0008 24.4795 63.3098 24.3589 63.5156 24.088C63.9964 23.4541 63.9957 22.7522 63.7006 22.0518C63.4331 21.4171 62.8789 21.2467 62.2415 21.2481C61.0304 21.2515 59.82 21.2495 58.6089 21.2495H58.284V24.4815ZM64.2708 26.8282C65.0073 27.8633 65.7514 28.9081 66.5274 29.9993C65.3627 29.9993 64.2562 30.0028 63.1498 29.991C63.0659 29.9903 62.9606 29.8933 62.9031 29.8136C62.3038 28.9878 61.7059 28.1605 61.1239 27.3229C60.9992 27.1427 60.8696 27.0825 60.6569 27.0859C59.874 27.0977 59.0904 27.0901 58.277 27.0901V29.9792H55.3228V18.6839C55.4011 18.6776 55.4759 18.6666 55.55 18.6666C57.896 18.6659 60.2412 18.6582 62.5872 18.6679C64.4385 18.6763 65.8858 19.6989 66.4421 21.3659C67.038 23.1506 66.4872 25.2513 65.1375 26.2871C64.8743 26.4887 64.5729 26.6411 64.2708 26.8282ZM46.1808 27.0956V30H43.2279V18.6818C43.3041 18.6749 43.3886 18.661 43.4732 18.661C45.763 18.6596 48.0528 18.6534 50.3427 18.6617C52.5078 18.67 54.0577 19.8146 54.4775 21.8328C54.8399 23.5705 54.456 25.1432 53.0267 26.321C52.2542 26.9578 51.3113 27.1012 50.3364 27.097C48.9681 27.0915 47.5997 27.0956 46.1808 27.0956Z" fill="#0907FC"/>
<path d="M4.46807 27.7475C6.86804 27.7475 8.37356 26.4401 8.37356 24.3713C8.37356 22.2859 6.85141 20.9785 4.46807 20.9785H2.0688V27.7475H4.46807ZM87.098 15.6777C83.3179 10.1489 74.4517 10.214 70.788 15.7982C71.6824 13.1537 74.7025 10.5874 78.3004 10.3519C83.1481 10.0346 86.2361 13.2916 87.098 15.6777ZM25.0237 15.6749C21.3669 10.2258 12.2853 10.135 8.67217 15.7975C9.75368 12.9493 12.8472 10.469 16.5642 10.3339C20.4309 10.1932 23.8147 12.6327 25.0237 15.6749ZM66.1149 15.7664C63.7759 15.7664 61.4369 15.7518 59.0979 15.7691C52.5007 15.8183 45.9029 15.8925 39.305 15.9229C38.4355 15.9264 37.5508 15.801 36.6993 15.6153C35.6559 15.3881 34.8183 14.7784 34.1684 13.9158C33.5573 13.1045 32.9248 12.3091 32.2977 11.502C33.1402 11.502 33.9522 11.4902 34.7635 11.5158C34.8744 11.5193 35.0053 11.6953 35.0815 11.8186C35.3857 12.3133 35.6746 12.817 35.9642 13.3193C36.4672 14.1922 37.2335 14.6939 38.2201 14.7791C39.445 14.8851 40.6768 14.935 41.9066 14.9724C46.3206 15.1047 50.7354 15.2197 55.1501 15.3444C58.6136 15.4421 62.0777 15.5447 65.5419 15.6451C65.7331 15.6507 65.9243 15.6617 66.1149 15.6701C66.1149 15.7019 66.1149 15.7345 66.1149 15.7664ZM27.9994 10.2881C28.9659 12.7151 28.9825 13.735 28.0424 15.3139C27.8886 10.5195 24.8879 8.42027 20.8009 7.27502C34.2972 8.17292 47.7936 9.07084 61.2893 9.96875C61.2893 9.99507 61.29 10.0214 61.29 10.0484C50.2137 10.1281 39.1374 10.2078 27.9994 10.2881ZM2.26279 15.3126C1.624 14.2948 0.886132 13.3234 0.369279 12.2468C-0.388679 10.6685 0.0394914 9.39439 1.47642 8.40295C2.78311 7.50088 4.28447 7.04499 5.7706 6.55655C12.0026 4.50646 18.3275 2.80972 24.7854 1.63259C28.4698 0.960547 32.1751 0.415289 35.9178 0.214367C38.3226 0.0855007 40.733 -0.0108029 43.1399 0.000975215C48.0333 0.0259172 52.6822 1.25084 57.1177 3.23026C59.6978 4.38175 62.1706 5.77226 64.7001 7.03737C64.9523 7.16347 65.2654 7.22236 65.5495 7.22167C72.4522 7.20019 79.2932 7.65607 85.909 9.84542C89.9323 11.177 93.5856 13.1551 96.668 16.1093C96.8925 16.3248 97.1385 16.5188 97.3747 16.7225C97.3477 16.7689 97.3214 16.8146 97.2944 16.8603C96.1304 16.9414 94.9664 17.028 93.8018 17.0931C93.6958 17.0994 93.5427 16.9954 93.4782 16.8984C91.2376 13.5202 87.9439 11.6877 84.1749 10.5625C80.5237 9.47268 76.7893 8.78955 72.9898 8.5616C69.8846 8.37454 66.7682 8.369 63.6595 8.22904C61.4292 8.12858 59.2025 7.94498 56.9757 7.78494C54.7483 7.62559 52.5236 7.39557 50.294 7.30619C49.3532 7.26878 48.5017 6.21637 48.8384 5.14871C49.056 4.45865 49.5562 4.14203 50.2781 4.25011C50.6079 4.2993 50.9321 4.38799 51.2619 4.43856C52.3289 4.60276 53.1832 5.04618 53.5871 6.12699C53.7291 6.50736 54.0055 6.6487 54.4316 6.68957C56.1803 6.85655 57.9242 7.07756 59.6701 7.2764C59.7138 7.28125 59.7609 7.25977 59.9563 7.22097C58.8138 6.64385 57.7974 6.10067 56.7554 5.61083C53.4208 4.04088 49.9843 2.76676 46.3262 2.18062C44.1126 1.8252 41.8824 1.79749 39.6445 1.87439C34.5425 2.05106 29.4758 2.61226 24.4133 3.23234C23.8556 3.30093 23.2965 3.36814 22.7367 3.4201C22.4353 3.44781 22.3168 3.58292 22.3029 3.88915C22.2648 4.73024 22.8655 5.36834 23.8618 5.47227C25.9777 5.69397 28.0943 5.90529 30.2116 6.11452C32.1162 6.30228 34.0222 6.48242 35.9233 6.73114C34.2675 6.65355 32.6123 6.55516 30.9564 6.5032C26.3477 6.35701 21.7404 6.31821 17.14 6.72699C14.1913 6.98957 11.2717 7.40042 8.4567 8.35445C7.67796 8.61911 6.90892 8.94128 6.18214 9.3258C3.8272 10.5708 2.25378 12.3375 2.4651 15.2253C2.3972 15.2544 2.32999 15.2835 2.26279 15.3126ZM90.876 23.1485H91.1392V24.9069H92.4743V25.1577H90.876V23.1485ZM89.9594 24.4746L89.4806 23.3494L88.9797 24.4746H89.9594ZM89.2825 23.1485H89.6815L90.5683 25.157H90.2503L90.0647 24.7247H88.8688L88.6769 25.157H88.3582L89.2825 23.1485ZM87.3737 23.3986H86.3996V23.1485H88.6097V23.3986H87.6363L87.6391 25.157H87.3765L87.3737 23.3986ZM84.1915 23.1485H84.5282L85.8509 24.8882L85.8446 23.1485H86.1079L86.1141 25.1577H85.7552L84.4541 23.4513L84.4604 25.1577H84.1971L84.1915 23.1485ZM81.9946 23.1485H83.7786V23.3986H82.2571V23.9674H83.6116V24.2175H82.2571V24.9069L83.7786 24.9104V25.1577H81.9946V23.1485ZM81.0038 24.1434C81.2172 24.1434 81.353 23.9979 81.353 23.7693C81.353 23.5406 81.2172 23.3986 81.0038 23.3986H80.144V24.1434H81.0038ZM79.8814 23.1485H81.0038C81.396 23.1485 81.6405 23.3896 81.6405 23.7727C81.6405 24.097 81.4611 24.3201 81.1645 24.3783L81.6869 25.157H81.3897L80.8923 24.3942H80.1475V25.157H79.8849L79.8814 23.1485ZM77.9297 24.1434C78.1431 24.1434 78.2789 23.9979 78.2789 23.7693C78.2789 23.5406 78.1431 23.3986 77.9297 23.3986H77.0706V24.1434H77.9297ZM76.808 23.1485H77.9297C78.3225 23.1485 78.5664 23.3896 78.5664 23.7727C78.5664 24.097 78.3877 24.3201 78.0904 24.3783L78.6128 25.157H78.3163L77.8189 24.3942H77.0734V25.157H76.8108L76.808 23.1485ZM75.8914 24.4746L75.412 23.3494L74.911 24.4746H75.8914ZM75.2145 23.1485H75.6129L76.4997 25.157H76.1817L75.996 24.7247H74.8002L74.6083 25.157H74.2903L75.2145 23.1485ZM72.146 24.1372C72.146 23.4817 72.5326 23.0709 73.1443 23.0709C73.596 23.0709 73.9605 23.2933 74.0873 23.6487H73.8032C73.7104 23.4478 73.4568 23.321 73.1443 23.321C72.7085 23.321 72.4335 23.6335 72.4335 24.1344C72.4335 24.6408 72.7085 24.9595 73.1443 24.9595C73.4783 24.9595 73.7443 24.8328 73.8337 24.6291H74.1212C73.9944 24.9845 73.6175 25.2097 73.1443 25.2097C72.5326 25.2097 72.146 24.7953 72.146 24.1372ZM39.8849 24.5037C39.6362 23.461 38.5942 22.8159 37.0547 22.8159C35.764 22.8159 34.8536 23.4443 34.5065 24.5037H39.8849ZM32.3712 25.5464C32.3712 22.7328 34.1753 20.9785 37.0547 20.9785C39.6695 20.9785 41.457 22.4349 41.705 24.7358C41.7549 25.4632 41.7875 26.0265 41.7715 26.1755H34.4067C34.6548 27.4163 35.6649 28.1611 37.1704 28.1611C38.6268 28.1611 39.6362 27.7475 39.7852 27.1018H41.6551C41.6551 28.9392 39.8517 30.0477 36.9882 29.9978C34.1587 29.9486 32.3712 28.2276 32.3712 25.5464ZM22.127 21.2106H24.3447L27.1576 27.6477L30.0045 21.2106H32.1065L28.2835 29.7332H25.9168L22.127 21.2106ZM19.0653 21.2106H21.0344V29.7332H19.0653V21.2106ZM19.0487 18.2813H21.051V20.2836H19.0487V18.2813ZM11.6514 21.2106H13.637V22.2201C14.6298 21.3762 16.1194 20.8462 17.7905 20.9952V22.7328C15.2423 22.4515 13.637 23.693 13.637 25.9267V29.7332H11.6514V21.2106ZM0 18.9763H4.46807C8.20867 18.9763 10.5747 21.0617 10.5747 24.388C10.5747 27.6644 8.2253 29.7332 4.46807 29.7332H0V18.9763Z" fill="white"/>
</svg>
